<svg id="Layer_1" data-name="Layer 1" xmlns="http://www.w3.org/2000/svg" viewBox="0 0 612 792"><defs><style>.cls-1{fill:#d2ac69;}.cls-2{fill:#bcbdc1;}</style></defs><title>Davidici-Hi-Res-Logo_clipped-no-text-VECTORIZED-INDEX-BACKGROUND</title><path class="cls-1" d="M186.32,521.75c-5.63-1.92-11.31-3.66-16.83-5.77-20.51-7.82-38.1-20.23-54-34.78-19.14-17.49-37.71-35.57-56.4-53.53-11.49-11-22.72-22.34-34.12-33.48a28.73,28.73,0,0,0-3.74-2.73L284.46,132.89c.44.38,1.46,1.17,2.38,2.07,25.35,24.9,50.9,49.62,76,74.78,19,19.08,36.29,39.56,47.47,64.29a140.35,140.35,0,0,1,12,48c2.34,31.58-4,61.5-17.38,90-10.82,23.11-26.17,43.11-44.92,60.65-22.23,20.78-47.58,36.54-76.84,45.8-8.9,2.82-18.21,4.38-27.33,6.53-3.43.81-5.7.12-6.36-3.83-1.48-8.8-3.22-17.57-4.83-26.35-.49-2.69.45-4.08,3.43-4.58,30.87-5.18,56.26-20.65,79.21-40.76,20.82-18.25,37.71-39.32,48.31-64.83,10.94-26.32,14-53.44,7.35-81.34a102.43,102.43,0,0,0-25-46.32c-19.29-20.72-39.44-40.67-59.26-60.92-3.58-3.67-7.39-7.13-10.89-10.87-2.32-2.48-3.88-2.73-6.55-.1Q222.59,243,163.81,300.58q-45,44.18-89.94,88.35c-.66.64-1.24,1.36-2.44,2.69C77,396.89,82.51,402,87.92,407.25c15.14,14.64,30.11,29.45,45.39,44a157.55,157.55,0,0,0,46.61,30.65c3.05,1.31,4,3,4.13,6.29C184.49,499.06,185.48,509.94,186.32,521.75Z"/><path class="cls-2" d="M546.91,429c-6.69-6.37-13.47-12.72-20.13-19.19-12.59-12.25-24.9-24.78-37.71-36.8-14.94-14-31.37-26-50.6-34-1.64-.68-3.56-2.83-3.74-4.47-1.18-11-1.93-22-2.8-33.07a18.09,18.09,0,0,1,.44-2.72c9.89,4,19.63,7.31,28.83,11.73,17.38,8.34,32.45,20.13,46.28,33.21,29.14,27.58,57.81,55.64,86.67,83.51,1,.93,1.8,2,2.33,2.6L333.78,687.8a21.89,21.89,0,0,1-1.93-1.65C305.06,659.81,278,633.7,251.6,607c-16.75-16.89-31.5-35.41-41.85-56.95A133,133,0,0,1,197.09,506a177,177,0,0,1,8.53-77.07,190.06,190.06,0,0,1,35.07-61.61,225.52,225.52,0,0,1,48.75-42.87,188.65,188.65,0,0,1,75.45-28.66,4.21,4.21,0,0,1,3.46,2,85.39,85.39,0,0,1,5.6,29c0,2.46-.75,3.68-3.28,4.08-26.29,4.1-48.83,16.12-69.22,32.3-18.52,14.69-35,31.32-47.28,51.59-11.5,19-19,39.21-21.15,61.32-2.05,20.76.34,40.81,9.13,59.88a112,112,0,0,0,21.12,31.28c23,23.72,46.52,47,69.84,70.48.36.36.85.59.28.2Z"/></svg>