<svg width="644" height="644" viewBox="0 0 644 644" fill="none" xmlns="http://www.w3.org/2000/svg">
<g id="Frame 11" clip-path="url(#clip0_545_280)">
<g id="Subtract">
<mask id="path-1-inside-1_545_280" fill="white">
<path fill-rule="evenodd" clip-rule="evenodd" d="M0.000638514 322C0.000211249 322.214 2.81251e-05 322.428 2.81064e-05 322.642C1.25837e-05 500.201 143.94 644.142 321.5 644.142C499.06 644.142 643 500.201 643 322.642C643 322.428 643 322.214 642.999 322L626.315 322C626.315 322 626.315 322 626.315 322C626.315 470.853 505.647 591.521 356.794 591.521C207.942 591.521 87.2735 470.852 87.2735 322L0.000638514 322Z"/>
</mask>
<path fill-rule="evenodd" clip-rule="evenodd" d="M0.000638514 322C0.000211249 322.214 2.81251e-05 322.428 2.81064e-05 322.642C1.25837e-05 500.201 143.94 644.142 321.5 644.142C499.06 644.142 643 500.201 643 322.642C643 322.428 643 322.214 642.999 322L626.315 322C626.315 322 626.315 322 626.315 322C626.315 470.853 505.647 591.521 356.794 591.521C207.942 591.521 87.2735 470.852 87.2735 322L0.000638514 322Z" fill="#D2AC69"/>
<path d="M0.000638514 322L0.000642448 321L-0.997366 321L-0.999359 321.998L0.000638514 322ZM642.999 322L643.999 321.998L643.997 321L642.999 321L642.999 322ZM626.315 322L626.315 321L625.315 321L625.315 322L626.315 322ZM87.2735 322L88.2735 322L88.2735 321L87.2735 321L87.2735 322ZM-0.999359 321.998C-0.999788 322.212 -0.999972 322.427 -0.999972 322.642L1.00003 322.642C1.00003 322.428 1.00021 322.215 1.00064 322.002L-0.999359 321.998ZM-0.999972 322.642C-0.999987 500.753 143.388 645.142 321.5 645.142L321.5 643.142C144.493 643.142 1.00001 499.649 1.00003 322.642L-0.999972 322.642ZM321.5 645.142C499.612 645.142 644 500.753 644 322.642L642 322.642C642 499.649 498.507 643.142 321.5 643.142L321.5 645.142ZM644 322.642C644 322.427 644 322.212 643.999 321.998L641.999 322.002C642 322.215 642 322.428 642 322.642L644 322.642ZM642.999 321L626.315 321L626.315 323L642.999 323L642.999 321ZM627.315 322C627.315 322 627.315 322 627.315 322C627.315 322 627.315 322 627.315 322L625.315 322C625.315 322 625.315 322 625.315 322C625.315 322 625.315 322 625.315 322L627.315 322ZM356.794 592.521C506.199 592.521 627.315 471.405 627.315 322L625.315 322C625.315 470.3 505.094 590.521 356.794 590.521L356.794 592.521ZM86.2735 322C86.2735 471.405 207.39 592.521 356.794 592.521L356.794 590.521C208.494 590.521 88.2735 470.3 88.2735 322L86.2735 322ZM87.2735 321L0.000642448 321L0.00063458 323L87.2735 323L87.2735 321Z" fill="#D1AA68" mask="url(#path-1-inside-1_545_280)"/>
</g>
<g id="Union 1" clip-path="url(#clip1_545_280)">
<path id="Vector" fill-rule="evenodd" clip-rule="evenodd" d="M641.717 321.359C641.717 144.429 498.288 1 321.359 1C144.429 1 1 144.429 1 321.359C1 321.572 1.00021 321.786 1.00063 322H0.000626547C0.000208913 321.786 0 321.572 0 321.359C0 143.877 143.877 0 321.359 0C498.84 0 642.717 143.877 642.717 321.359C642.717 321.572 642.717 321.786 642.716 322H641.716C641.717 321.786 641.717 321.572 641.717 321.359ZM555.482 321.817C555.383 173.114 434.805 52.5976 286.08 52.5976C137.304 52.5976 16.6948 173.196 16.6773 321.968V321H1.28287V322H16.6773H555.482H641.434V321H555.482V321.817Z" fill="white"/>
<g id="Mask group">
<mask id="mask0_545_280" style="mask-type:luminance" maskUnits="userSpaceOnUse" x="0" y="0" width="643" height="322">
<g id="Group">
<path id="Vector_2" fill-rule="evenodd" clip-rule="evenodd" d="M641.717 321.359C641.717 144.429 498.288 1 321.359 1C144.429 1 1 144.429 1 321.359C1 321.572 1.00021 321.786 1.00063 322H0.000626547C0.000208913 321.786 0 321.572 0 321.359C0 143.877 143.877 0 321.359 0C498.84 0 642.717 143.877 642.717 321.359C642.717 321.572 642.717 321.786 642.716 322H641.716C641.717 321.786 641.717 321.572 641.717 321.359ZM555.482 321.817C555.383 173.114 434.805 52.5976 286.08 52.5976C137.304 52.5976 16.6948 173.196 16.6773 321.968V321H1.28287V322H16.6773H555.482H641.434V321H555.482V321.817Z" fill="white"/>
</g>
</mask>
<g mask="url(#mask0_545_280)">
<path id="Vector_3" d="M1.00063 322V323H2.00259L2.00063 321.998L1.00063 322ZM0.000626564 322L-0.999372 322.002L-0.997422 323H0.000626564V322ZM642.716 322V323H643.714L643.716 322.002L642.716 322ZM641.716 322L640.716 321.998L640.714 323H641.716V322ZM555.482 321.817H554.482H556.482H555.482ZM16.6773 321.968H15.6773H17.6773H16.6773ZM16.6773 321H17.6773V320H16.6773V321ZM1.28287 321V320H0.282869V321H1.28287ZM1.28287 322H0.282869V323H1.28287V322ZM641.434 322V323H642.434V322H641.434ZM641.434 321H642.434V320H641.434V321ZM555.482 321V320H554.482V321H555.482ZM321.359 2C497.735 2 640.717 144.982 640.717 321.359H642.717C642.717 143.877 498.84 0 321.359 0V2ZM2 321.359C2 144.982 144.982 2 321.359 2V0C143.877 0 0 143.877 0 321.359H2ZM2.00063 321.998C2.00021 321.785 2 321.572 2 321.359H0C0 321.573 0.000210198 321.788 0.000630379 322.002L2.00063 321.998ZM0.000626564 323H1.00063V321H0.000626564V323ZM-1 321.359C-1 321.573 -0.99979 321.788 -0.999372 322.002L1.00062 321.998C1.00021 321.785 1 321.572 1 321.359H-1ZM321.359 -1C143.325 -1 -1 143.325 -1 321.359H1C1 144.429 144.429 1 321.359 1V-1ZM643.717 321.359C643.717 143.325 499.392 -1 321.359 -1V1C498.288 1 641.717 144.429 641.717 321.359H643.717ZM643.716 322.002C643.717 321.787 643.717 321.573 643.717 321.359H641.717C641.717 321.572 641.717 321.785 641.716 321.998L643.716 322.002ZM641.716 323H642.716V321H641.716V323ZM640.717 321.359C640.717 321.572 640.717 321.785 640.716 321.998L642.716 322.002C642.717 321.787 642.717 321.573 642.717 321.359H640.717ZM286.08 53.5976C434.253 53.5976 554.383 173.667 554.482 321.817H556.482C556.383 172.562 435.358 51.5976 286.08 51.5976V53.5976ZM17.6773 321.968C17.6947 173.748 137.856 53.5976 286.08 53.5976V51.5976C136.751 51.5976 15.6949 172.644 15.6773 321.968H17.6773ZM15.6773 321V321.968H17.6773V321H15.6773ZM1.28287 322H16.6773V320H1.28287V322ZM2.28287 322V321H0.282869V322H2.28287ZM16.6773 321H1.28287V323H16.6773V321ZM555.482 321H16.6773V323H555.482V321ZM641.434 321H555.482V323H641.434V321ZM640.434 321V322H642.434V321H640.434ZM555.482 322H641.434V320H555.482V322ZM556.482 321.817V321H554.482V321.817H556.482Z" fill="#D2AC69"/>
</g>
</g>
<path id="$3107.00" d="M245.224 214.182V192.364H246.621V214.182H245.224ZM248.931 199.565C248.863 198.878 248.57 198.344 248.053 197.963C247.536 197.582 246.835 197.392 245.948 197.392C245.346 197.392 244.837 197.477 244.423 197.648C244.008 197.812 243.69 198.043 243.468 198.338C243.252 198.634 243.144 198.969 243.144 199.344C243.133 199.656 243.198 199.929 243.34 200.162C243.488 200.395 243.69 200.597 243.945 200.767C244.201 200.932 244.496 201.077 244.832 201.202C245.167 201.321 245.525 201.423 245.906 201.509L247.474 201.884C248.235 202.054 248.934 202.281 249.57 202.565C250.207 202.849 250.758 203.199 251.224 203.614C251.69 204.028 252.05 204.517 252.306 205.08C252.567 205.642 252.701 206.287 252.707 207.014C252.701 208.082 252.428 209.009 251.888 209.793C251.354 210.571 250.582 211.176 249.57 211.608C248.565 212.034 247.352 212.247 245.931 212.247C244.522 212.247 243.295 212.031 242.249 211.599C241.21 211.168 240.397 210.528 239.812 209.682C239.232 208.83 238.928 207.776 238.9 206.52H242.471C242.511 207.105 242.678 207.594 242.974 207.986C243.275 208.372 243.675 208.665 244.175 208.864C244.681 209.057 245.252 209.153 245.888 209.153C246.513 209.153 247.056 209.062 247.516 208.881C247.982 208.699 248.343 208.446 248.599 208.122C248.854 207.798 248.982 207.426 248.982 207.006C248.982 206.614 248.866 206.284 248.633 206.017C248.406 205.75 248.07 205.523 247.627 205.335C247.19 205.148 246.653 204.977 246.016 204.824L244.116 204.347C242.644 203.989 241.482 203.429 240.63 202.668C239.778 201.906 239.354 200.881 239.36 199.591C239.354 198.534 239.636 197.611 240.204 196.821C240.778 196.031 241.565 195.415 242.565 194.972C243.565 194.528 244.701 194.307 245.974 194.307C247.269 194.307 248.4 194.528 249.366 194.972C250.337 195.415 251.093 196.031 251.633 196.821C252.173 197.611 252.451 198.526 252.468 199.565H248.931ZM261.538 212.239C260.266 212.239 259.132 212.02 258.138 211.582C257.149 211.139 256.368 210.531 255.794 209.759C255.226 208.98 254.933 208.082 254.916 207.065H258.632C258.655 207.491 258.794 207.866 259.05 208.19C259.311 208.509 259.658 208.756 260.089 208.932C260.521 209.108 261.007 209.196 261.547 209.196C262.109 209.196 262.607 209.097 263.038 208.898C263.47 208.699 263.808 208.423 264.053 208.071C264.297 207.719 264.419 207.312 264.419 206.852C264.419 206.386 264.288 205.974 264.027 205.616C263.771 205.253 263.402 204.969 262.919 204.764C262.442 204.56 261.874 204.457 261.214 204.457H259.587V201.747H261.214C261.771 201.747 262.263 201.651 262.689 201.457C263.121 201.264 263.456 200.997 263.695 200.656C263.933 200.31 264.053 199.906 264.053 199.446C264.053 199.009 263.947 198.625 263.737 198.295C263.533 197.96 263.243 197.699 262.868 197.511C262.499 197.324 262.067 197.23 261.572 197.23C261.072 197.23 260.615 197.321 260.2 197.503C259.786 197.679 259.453 197.932 259.203 198.261C258.953 198.591 258.82 198.977 258.803 199.42H255.266C255.283 198.415 255.57 197.528 256.126 196.761C256.683 195.994 257.433 195.395 258.376 194.963C259.325 194.526 260.396 194.307 261.589 194.307C262.794 194.307 263.848 194.526 264.751 194.963C265.655 195.401 266.357 195.991 266.857 196.736C267.362 197.474 267.612 198.304 267.607 199.224C267.612 200.202 267.308 201.017 266.695 201.67C266.087 202.324 265.294 202.739 264.317 202.915V203.051C265.601 203.216 266.578 203.662 267.249 204.389C267.925 205.111 268.26 206.014 268.254 207.099C268.26 208.094 267.973 208.977 267.393 209.75C266.82 210.523 266.027 211.131 265.016 211.574C264.004 212.017 262.845 212.239 261.538 212.239ZM278.501 194.545V212H274.81V198.048H274.708L270.711 200.554V197.281L275.032 194.545H278.501ZM289.493 212.384C288.027 212.378 286.766 212.017 285.709 211.301C284.658 210.585 283.848 209.548 283.28 208.19C282.717 206.832 282.439 205.199 282.445 203.29C282.445 201.386 282.726 199.764 283.288 198.423C283.857 197.082 284.666 196.062 285.717 195.364C286.774 194.659 288.033 194.307 289.493 194.307C290.953 194.307 292.209 194.659 293.26 195.364C294.317 196.068 295.129 197.091 295.697 198.432C296.266 199.767 296.547 201.386 296.541 203.29C296.541 205.205 296.257 206.841 295.689 208.199C295.126 209.557 294.32 210.594 293.268 211.31C292.217 212.026 290.959 212.384 289.493 212.384ZM289.493 209.324C290.493 209.324 291.291 208.821 291.888 207.815C292.484 206.81 292.78 205.301 292.774 203.29C292.774 201.966 292.638 200.864 292.365 199.983C292.098 199.102 291.717 198.44 291.223 197.997C290.734 197.554 290.158 197.332 289.493 197.332C288.499 197.332 287.703 197.83 287.107 198.824C286.51 199.818 286.209 201.307 286.203 203.29C286.203 204.631 286.337 205.75 286.604 206.648C286.876 207.54 287.26 208.21 287.754 208.659C288.249 209.102 288.828 209.324 289.493 209.324ZM299.394 212L306.63 197.682V197.562H298.201V194.545H310.448V197.605L303.204 212H299.394ZM312.134 212.222C311.571 212.222 311.088 212.023 310.685 211.625C310.287 211.222 310.088 210.739 310.088 210.176C310.088 209.619 310.287 209.142 310.685 208.744C311.088 208.347 311.571 208.148 312.134 208.148C312.679 208.148 313.156 208.347 313.565 208.744C313.974 209.142 314.179 209.619 314.179 210.176C314.179 210.551 314.082 210.895 313.889 211.207C313.702 211.514 313.455 211.761 313.148 211.949C312.841 212.131 312.503 212.222 312.134 212.222ZM323.266 212.384C321.8 212.378 320.539 212.017 319.482 211.301C318.431 210.585 317.621 209.548 317.053 208.19C316.491 206.832 316.212 205.199 316.218 203.29C316.218 201.386 316.499 199.764 317.062 198.423C317.63 197.082 318.44 196.062 319.491 195.364C320.548 194.659 321.806 194.307 323.266 194.307C324.727 194.307 325.982 194.659 327.033 195.364C328.09 196.068 328.903 197.091 329.471 198.432C330.039 199.767 330.32 201.386 330.315 203.29C330.315 205.205 330.031 206.841 329.462 208.199C328.9 209.557 328.093 210.594 327.042 211.31C325.991 212.026 324.732 212.384 323.266 212.384ZM323.266 209.324C324.266 209.324 325.065 208.821 325.661 207.815C326.258 206.81 326.553 205.301 326.548 203.29C326.548 201.966 326.411 200.864 326.138 199.983C325.871 199.102 325.491 198.44 324.996 197.997C324.508 197.554 323.931 197.332 323.266 197.332C322.272 197.332 321.477 197.83 320.88 198.824C320.283 199.818 319.982 201.307 319.977 203.29C319.977 204.631 320.11 205.75 320.377 206.648C320.65 207.54 321.033 208.21 321.528 208.659C322.022 209.102 322.602 209.324 323.266 209.324ZM339.79 212.384C338.324 212.378 337.063 212.017 336.006 211.301C334.955 210.585 334.145 209.548 333.577 208.19C333.014 206.832 332.736 205.199 332.741 203.29C332.741 201.386 333.023 199.764 333.585 198.423C334.153 197.082 334.963 196.062 336.014 195.364C337.071 194.659 338.33 194.307 339.79 194.307C341.25 194.307 342.506 194.659 343.557 195.364C344.614 196.068 345.426 197.091 345.994 198.432C346.563 199.767 346.844 201.386 346.838 203.29C346.838 205.205 346.554 206.841 345.986 208.199C345.423 209.557 344.616 210.594 343.565 211.31C342.514 212.026 341.256 212.384 339.79 212.384ZM339.79 209.324C340.79 209.324 341.588 208.821 342.185 207.815C342.781 206.81 343.077 205.301 343.071 203.29C343.071 201.966 342.935 200.864 342.662 199.983C342.395 199.102 342.014 198.44 341.52 197.997C341.031 197.554 340.455 197.332 339.79 197.332C338.795 197.332 338 197.83 337.403 198.824C336.807 199.818 336.506 201.307 336.5 203.29C336.5 204.631 336.634 205.75 336.901 206.648C337.173 207.54 337.557 208.21 338.051 208.659C338.545 209.102 339.125 209.324 339.79 209.324Z" fill="#D2AC69"/>
<path id="To Target" d="M260.114 223.263V222.091H268.295V223.263H264.865V233H263.544V223.263H260.114ZM272.301 233.17C271.562 233.17 270.914 232.995 270.357 232.643C269.803 232.292 269.37 231.8 269.057 231.168C268.748 230.536 268.594 229.797 268.594 228.952C268.594 228.099 268.748 227.355 269.057 226.72C269.37 226.084 269.803 225.591 270.357 225.239C270.914 224.887 271.562 224.712 272.301 224.712C273.04 224.712 273.686 224.887 274.24 225.239C274.798 225.591 275.231 226.084 275.54 226.72C275.852 227.355 276.008 228.099 276.008 228.952C276.008 229.797 275.852 230.536 275.54 231.168C275.231 231.8 274.798 232.292 274.24 232.643C273.686 232.995 273.04 233.17 272.301 233.17ZM272.301 232.041C272.862 232.041 273.324 231.897 273.686 231.61C274.048 231.322 274.316 230.944 274.49 230.475C274.664 230.006 274.751 229.499 274.751 228.952C274.751 228.405 274.664 227.895 274.49 227.423C274.316 226.951 274.048 226.569 273.686 226.278C273.324 225.987 272.862 225.841 272.301 225.841C271.74 225.841 271.278 225.987 270.916 226.278C270.554 226.569 270.286 226.951 270.112 227.423C269.938 227.895 269.851 228.405 269.851 228.952C269.851 229.499 269.938 230.006 270.112 230.475C270.286 230.944 270.554 231.322 270.916 231.61C271.278 231.897 271.74 232.041 272.301 232.041ZM281.72 223.263V222.091H289.902V223.263H286.471V233H285.15V223.263H281.72ZM293.065 233.192C292.546 233.192 292.076 233.094 291.653 232.899C291.23 232.7 290.895 232.414 290.646 232.041C290.398 231.665 290.273 231.21 290.273 230.678C290.273 230.209 290.366 229.829 290.55 229.538C290.735 229.243 290.982 229.012 291.291 228.845C291.6 228.678 291.941 228.554 292.314 228.472C292.69 228.387 293.068 228.32 293.448 228.27C293.945 228.206 294.348 228.158 294.657 228.126C294.97 228.091 295.197 228.032 295.339 227.95C295.485 227.869 295.557 227.727 295.557 227.524V227.482C295.557 226.956 295.414 226.548 295.126 226.256C294.842 225.965 294.41 225.82 293.832 225.82C293.231 225.82 292.761 225.951 292.42 226.214C292.079 226.477 291.839 226.757 291.701 227.055L290.508 226.629C290.721 226.132 291.005 225.745 291.36 225.468C291.719 225.187 292.109 224.992 292.532 224.882C292.958 224.768 293.377 224.712 293.789 224.712C294.052 224.712 294.354 224.744 294.695 224.808C295.039 224.868 295.371 224.994 295.691 225.186C296.014 225.377 296.282 225.667 296.495 226.054C296.708 226.441 296.815 226.96 296.815 227.609V233H295.557V231.892H295.494C295.408 232.07 295.266 232.26 295.067 232.462C294.869 232.664 294.604 232.837 294.274 232.979C293.943 233.121 293.54 233.192 293.065 233.192ZM293.256 232.062C293.754 232.062 294.173 231.965 294.513 231.77C294.858 231.574 295.117 231.322 295.291 231.013C295.469 230.704 295.557 230.379 295.557 230.038V228.888C295.504 228.952 295.387 229.01 295.206 229.064C295.028 229.113 294.822 229.158 294.588 229.197C294.357 229.232 294.132 229.264 293.912 229.293C293.695 229.317 293.519 229.339 293.384 229.357C293.057 229.399 292.752 229.468 292.468 229.564C292.187 229.657 291.96 229.797 291.786 229.985C291.616 230.17 291.53 230.422 291.53 230.741C291.53 231.178 291.692 231.509 292.015 231.732C292.342 231.952 292.756 232.062 293.256 232.062ZM299.109 233V224.818H300.324V226.054H300.409C300.558 225.649 300.828 225.321 301.218 225.069C301.609 224.816 302.049 224.69 302.539 224.69C302.632 224.69 302.747 224.692 302.886 224.696C303.024 224.699 303.129 224.705 303.2 224.712V225.99C303.157 225.979 303.06 225.963 302.907 225.942C302.758 225.917 302.6 225.905 302.433 225.905C302.035 225.905 301.68 225.988 301.368 226.155C301.059 226.319 300.814 226.546 300.633 226.837C300.455 227.125 300.366 227.453 300.366 227.822V233H299.109ZM307.744 236.239C307.136 236.239 306.614 236.161 306.178 236.004C305.741 235.852 305.377 235.649 305.086 235.397C304.798 235.148 304.569 234.882 304.398 234.598L305.4 233.895C305.514 234.044 305.657 234.214 305.831 234.406C306.005 234.602 306.243 234.77 306.545 234.912C306.851 235.058 307.25 235.131 307.744 235.131C308.404 235.131 308.949 234.971 309.379 234.651C309.809 234.332 310.023 233.831 310.023 233.149V231.487H309.917C309.825 231.636 309.693 231.821 309.523 232.041C309.356 232.258 309.114 232.451 308.798 232.622C308.486 232.789 308.063 232.872 307.531 232.872C306.87 232.872 306.277 232.716 305.751 232.403C305.229 232.091 304.816 231.636 304.51 231.04C304.208 230.443 304.058 229.719 304.058 228.866C304.058 228.028 304.205 227.299 304.5 226.677C304.794 226.052 305.205 225.569 305.73 225.228C306.256 224.884 306.863 224.712 307.552 224.712C308.085 224.712 308.507 224.8 308.82 224.978C309.136 225.152 309.377 225.351 309.544 225.575C309.715 225.795 309.846 225.976 309.938 226.118H310.066V224.818H311.281V233.234C311.281 233.938 311.121 234.509 310.801 234.95C310.485 235.393 310.059 235.718 309.523 235.924C308.99 236.134 308.397 236.239 307.744 236.239ZM307.701 231.743C308.205 231.743 308.631 231.627 308.979 231.397C309.327 231.166 309.592 230.834 309.773 230.401C309.954 229.967 310.045 229.449 310.045 228.845C310.045 228.256 309.956 227.735 309.778 227.284C309.601 226.833 309.338 226.48 308.99 226.224C308.642 225.969 308.212 225.841 307.701 225.841C307.168 225.841 306.724 225.976 306.369 226.246C306.018 226.516 305.753 226.878 305.576 227.332C305.402 227.787 305.315 228.291 305.315 228.845C305.315 229.413 305.403 229.916 305.581 230.353C305.762 230.786 306.028 231.127 306.38 231.375C306.735 231.62 307.175 231.743 307.701 231.743ZM317.012 233.17C316.224 233.17 315.544 232.996 314.972 232.648C314.404 232.297 313.965 231.807 313.656 231.178C313.351 230.546 313.198 229.811 313.198 228.973C313.198 228.135 313.351 227.396 313.656 226.757C313.965 226.114 314.395 225.614 314.945 225.255C315.499 224.893 316.146 224.712 316.884 224.712C317.31 224.712 317.731 224.783 318.147 224.925C318.562 225.067 318.94 225.298 319.281 225.617C319.622 225.933 319.894 226.352 320.096 226.874C320.299 227.396 320.4 228.039 320.4 228.803V229.335H314.093V228.249H319.121C319.121 227.787 319.029 227.375 318.845 227.013C318.663 226.651 318.404 226.365 318.067 226.155C317.733 225.946 317.339 225.841 316.884 225.841C316.384 225.841 315.95 225.965 315.585 226.214C315.222 226.459 314.944 226.778 314.748 227.173C314.553 227.567 314.455 227.989 314.455 228.44V229.165C314.455 229.783 314.562 230.306 314.775 230.736C314.992 231.162 315.292 231.487 315.675 231.711C316.059 231.931 316.504 232.041 317.012 232.041C317.342 232.041 317.641 231.995 317.907 231.903C318.177 231.807 318.409 231.665 318.605 231.477C318.8 231.285 318.951 231.047 319.058 230.763L320.272 231.104C320.144 231.516 319.929 231.878 319.628 232.19C319.326 232.499 318.953 232.741 318.509 232.915C318.065 233.085 317.566 233.17 317.012 233.17ZM325.87 224.818V225.884H321.63V224.818H325.87ZM322.866 222.858H324.123V230.656C324.123 231.011 324.175 231.278 324.278 231.455C324.384 231.629 324.519 231.746 324.683 231.807C324.849 231.864 325.025 231.892 325.21 231.892C325.348 231.892 325.462 231.885 325.551 231.871C325.64 231.853 325.711 231.839 325.764 231.828L326.02 232.957C325.934 232.989 325.815 233.021 325.663 233.053C325.51 233.089 325.316 233.107 325.082 233.107C324.727 233.107 324.379 233.03 324.038 232.877C323.701 232.725 323.42 232.492 323.196 232.18C322.976 231.867 322.866 231.473 322.866 230.997V222.858Z" fill="black"/>
</g>
</g>
<defs>
<clipPath id="clip0_545_280">
<rect width="644" height="644" fill="white"/>
</clipPath>
<clipPath id="clip1_545_280">
<rect width="643" height="322" fill="white"/>
</clipPath>
</defs>
</svg>
