<svg width="530" height="267" viewBox="0 0 530 267" fill="none" xmlns="http://www.w3.org/2000/svg">
<mask id="path-1-inside-1_532_229" fill="white">
<path fill-rule="evenodd" clip-rule="evenodd" d="M529.826 267C529.827 266.652 529.828 266.305 529.828 265.957C529.828 119.073 411.222 0 264.914 0C118.606 0 0 119.073 0 265.957C0 266.305 0.000665041 266.652 0.00199392 267H10.467C12.6817 143.354 113.146 43.8047 236.754 43.8047C360.362 43.8047 460.826 143.354 463.041 267H529.826Z"/>
</mask>
<path d="M529.826 267V268H530.822L530.826 267.004L529.826 267ZM0.00199392 267L-0.997999 267.004L-0.994189 268H0.00199392V267ZM10.467 267V268H11.4493L11.4669 267.018L10.467 267ZM463.041 267L462.041 267.018L462.059 268H463.041V267ZM530.826 267.004C530.827 266.655 530.828 266.306 530.828 265.957H528.828C528.828 266.304 528.827 266.65 528.826 266.996L530.826 267.004ZM530.828 265.957C530.828 118.524 411.778 -1 264.914 -1V1C410.666 1 528.828 119.622 528.828 265.957H530.828ZM264.914 -1C118.05 -1 -1 118.524 -1 265.957H1C1 119.622 119.162 1 264.914 1V-1ZM-1 265.957C-1 266.306 -0.999333 266.655 -0.997999 267.004L1.00199 266.996C1.00066 266.65 1 266.304 1 265.957H-1ZM0.00199392 268H10.467V266H0.00199392V268ZM236.754 42.8047C112.595 42.8047 11.6915 142.796 9.46718 266.982L11.4669 267.018C13.6719 143.911 113.696 44.8047 236.754 44.8047V42.8047ZM464.041 266.982C461.816 142.796 360.913 42.8047 236.754 42.8047V44.8047C359.812 44.8047 459.836 143.911 462.041 267.018L464.041 266.982ZM463.041 268H529.826V266H463.041V268Z" fill="#D1AA68" mask="url(#path-1-inside-1_532_229)"/>
</svg>
