<svg width="643" height="322" viewBox="0 0 643 322" fill="none" xmlns="http://www.w3.org/2000/svg">
<mask id="path-1-inside-1_543_261" fill="white">
<path fill-rule="evenodd" clip-rule="evenodd" d="M641.717 321.359C641.717 144.429 498.288 1 321.359 1C144.429 1 1 144.429 1 321.359C1 321.572 1.00021 321.786 1.00063 322H0.000626547C0.000208913 321.786 0 321.572 0 321.359C0 143.877 143.877 0 321.359 0C498.84 0 642.717 143.877 642.717 321.359C642.717 321.572 642.717 321.786 642.716 322H641.716C641.717 321.786 641.717 321.572 641.717 321.359ZM555.482 321.817C555.383 173.114 434.805 52.5976 286.08 52.5976C137.304 52.5976 16.6948 173.196 16.6773 321.968V321H1.28287V322H16.6773H555.482H641.434V321H555.482V321.817Z"/>
</mask>
<path fill-rule="evenodd" clip-rule="evenodd" d="M641.717 321.359C641.717 144.429 498.288 1 321.359 1C144.429 1 1 144.429 1 321.359C1 321.572 1.00021 321.786 1.00063 322H0.000626547C0.000208913 321.786 0 321.572 0 321.359C0 143.877 143.877 0 321.359 0C498.84 0 642.717 143.877 642.717 321.359C642.717 321.572 642.717 321.786 642.716 322H641.716C641.717 321.786 641.717 321.572 641.717 321.359ZM555.482 321.817C555.383 173.114 434.805 52.5976 286.08 52.5976C137.304 52.5976 16.6948 173.196 16.6773 321.968V321H1.28287V322H16.6773H555.482H641.434V321H555.482V321.817Z" fill="white"/>
<path d="M1.00063 322V323H2.00259L2.00063 321.998L1.00063 322ZM0.000626547 322L-0.999372 322.002L-0.997422 323H0.000626547V322ZM642.716 322V323H643.714L643.716 322.002L642.716 322ZM641.716 322L640.716 321.998L640.714 323H641.716V322ZM555.482 321.817L554.482 321.817L556.482 321.817H555.482ZM16.6773 321.968H15.6773L17.6773 321.968L16.6773 321.968ZM16.6773 321H17.6773V320H16.6773V321ZM1.28287 321V320H0.282869V321H1.28287ZM1.28287 322H0.282869V323H1.28287V322ZM641.434 322V323H642.434V322H641.434ZM641.434 321H642.434V320H641.434V321ZM555.482 321V320H554.482V321H555.482ZM321.359 2C497.735 2 640.717 144.982 640.717 321.359H642.717C642.717 143.877 498.84 0 321.359 0V2ZM2 321.359C2 144.982 144.982 2 321.359 2V0C143.877 0 0 143.877 0 321.359H2ZM2.00063 321.998C2.00021 321.785 2 321.572 2 321.359H0C0 321.573 0.00021021 321.788 0.000630391 322.002L2.00063 321.998ZM0.000626547 323H1.00063V321H0.000626547V323ZM-1 321.359C-1 321.573 -0.99979 321.788 -0.999372 322.002L1.00062 321.998C1.00021 321.785 1 321.572 1 321.359H-1ZM321.359 -1C143.325 -1 -1 143.325 -1 321.359H1C1 144.429 144.429 1 321.359 1V-1ZM643.717 321.359C643.717 143.325 499.392 -1 321.359 -1V1C498.288 1 641.717 144.429 641.717 321.359H643.717ZM643.716 322.002C643.717 321.787 643.717 321.573 643.717 321.359H641.717C641.717 321.572 641.717 321.785 641.716 321.998L643.716 322.002ZM641.716 323H642.716V321H641.716V323ZM640.717 321.359C640.717 321.572 640.717 321.785 640.716 321.998L642.716 322.002C642.717 321.787 642.717 321.573 642.717 321.359H640.717ZM286.08 53.5976C434.253 53.5976 554.383 173.667 554.482 321.817L556.482 321.816C556.383 172.561 435.358 51.5976 286.08 51.5976V53.5976ZM17.6773 321.968C17.6947 173.748 137.856 53.5976 286.08 53.5976V51.5976C136.751 51.5976 15.6949 172.643 15.6773 321.967L17.6773 321.968ZM15.6773 321V321.968H17.6773V321H15.6773ZM1.28287 322H16.6773V320H1.28287V322ZM2.28287 322V321H0.282869V322H2.28287ZM16.6773 321H1.28287V323H16.6773V321ZM555.482 321H16.6773V323H555.482V321ZM641.434 321H555.482V323H641.434V321ZM640.434 321V322H642.434V321H640.434ZM555.482 322H641.434V320H555.482V322ZM556.482 321.817V321H554.482V321.817H556.482Z" fill="#D2AC69" mask="url(#path-1-inside-1_543_261)"/>
</svg>
